<?xml version="1.0" encoding="utf-8"?>
<!-- Generator: Adobe Illustrator 16.0.4, SVG Export Plug-In . SVG Version: 6.00 Build 0)  -->
<!DOCTYPE svg PUBLIC "-//W3C//DTD SVG 1.1//EN" "http://www.w3.org/Graphics/SVG/1.1/DTD/svg11.dtd">
<svg version="1.1" id="Layer_1" xmlns="http://www.w3.org/2000/svg" xmlns:xlink="http://www.w3.org/1999/xlink" x="0px" y="0px"
	 width="500px" height="500px" viewBox="0 0 500 500" enable-background="new 0 0 500 500" xml:space="preserve">
<path d="M359.581,171.065c-3.343-1.227-5.979-0.087-7.914,3.43c-1.935,3.518-3.471,8.437-4.613,14.767
	c-1.145,6.327-1.891,13.581-2.242,21.754c-0.354,8.175-0.485,16.31-0.393,24.393c0.084,8.089,0.217,15.734,0.393,22.94
	c0.175,7.211,0.264,12.924,0.264,17.143c4.394-12.832,7.997-25.448,10.815-37.84c2.808-12.396,4.874-23.512,6.194-33.361
	c1.318-9.84,1.757-17.799,1.318-23.863C362.962,174.363,361.689,171.244,359.581,171.065"/>
<path d="M288.116,271.308c-6.684,4.397-12.395,9.54-17.142,15.428c-4.746,5.89-8.438,11.604-11.075,17.141
	c-2.637,5.539-4.218,10.507-4.748,14.9c-0.526,4.394,0.089,7.297,1.85,8.703c1.754,0.353,4.568-0.966,8.436-3.958
	c3.865-2.985,7.913-7.16,12.133-12.523c4.218-5.361,8.04-11.604,11.469-18.725c3.43-7.118,5.671-14.636,6.726-22.546h-3.034
	C291.411,269.728,289.872,270.255,288.116,271.308"/>
<path d="M421.16,283.196c-4.744,5.888-8.435,11.602-11.073,17.138c-2.637,5.54-4.218,10.508-4.749,14.9
	c-0.526,4.395,0.089,7.297,1.848,8.701c1.755,0.355,4.568-0.964,8.438-3.955c3.864-2.985,7.911-7.158,12.131-12.525
	c4.219-5.361,8.043-11.602,11.471-18.723c3.428-7.118,5.668-14.636,6.726-22.546h-3.036c-1.316,0-2.856,0.528-4.613,1.582
	C431.619,272.164,425.909,277.306,421.16,283.196"/>
<path d="M451.62,331.321c-2.729-0.175-4.97-1.758-6.727-4.748c-0.882-2.109-1.408-4.702-1.581-7.78
	c-0.179-3.074-0.179-6.195,0-9.359c0.173-3.165,0.438-6.063,0.793-8.702c0.349-2.638,0.614-4.569,0.788-5.802
	c-3.692,6.856-7.908,13.36-12.655,19.513c-4.749,6.157-9.407,10.988-13.977,14.504c-4.572,3.521-8.795,5.407-12.659,5.669
	c-3.869,0.264-6.854-1.979-8.966-6.724c-1.227-4.568-1.227-9.712,0-15.426c1.232-5.713,3.077-10.854,5.539-15.427
	c3.693-6.329,7.557-12.131,11.602-17.404c4.042-5.273,8.348-9.758,12.923-13.448c4.567-3.692,9.361-6.371,14.371-8.043
	c5.009-1.671,10.238-2.063,15.692-1.188c-0.179,1.057-0.575,3.257-1.188,6.595c-0.619,3.341-1.278,7.25-1.978,11.734
	c-0.706,4.485-1.318,9.188-1.846,14.108c-0.529,4.922-0.837,9.582-0.922,13.978c-0.093,4.393,0.173,8.132,0.79,11.205
	c0.616,3.077,1.621,4.968,3.033,5.669c4.042,1.937,8.172,1.279,12.393-1.978c3.918-3.018,8.445-7.531,13.574-13.503
	c37.88-54.903-11.164-100.089-36.98-118.974c-21.331-15.608-115.869-57.728-170.968-81.718
	c-37.034-16.292-73.231-26.004-78.791-27.454C-13.322,32.339,9.995,217.564,9.995,217.564
	C21.21,340.927,125.886,383.918,125.886,383.918c147.662,57.946,253.015,4.286,317.754-42.991
	c4.612-3.368,8.851-6.714,12.748-10.038C454.755,331.271,453.167,331.421,451.62,331.321 M76.794,148.86
	c0-19.613,15.896-35.515,35.512-35.515c19.613,0,35.516,15.902,35.516,35.515c0,19.614-15.903,35.515-35.516,35.515
	C92.69,184.375,76.794,168.474,76.794,148.86 M364.984,230.135c-1.845,7.911-3.823,15.604-5.933,23.074
	c-2.11,7.472-4.221,14.463-6.327,20.964c-2.11,6.506-3.956,11.957-5.536,16.351c0,0.525,0.262,2.991,0.788,7.383
	c0.527,4.396,1.144,9.756,1.846,16.086c0.701,6.328,1.537,13.143,2.505,20.434c0.964,7.302,1.847,14.24,2.641,20.833
	c0.787,6.593,1.534,12.396,2.238,17.406c0.702,5.01,1.142,8.213,1.319,9.625c-1.055-0.179-1.938-0.355-2.637-0.527
	c-0.707-0.177-1.41-0.62-2.109-1.32c-0.707-0.703-1.543-1.712-2.506-3.031c-0.97-1.319-2.334-3.211-4.085-5.67
	c-2.292-16.175-4.089-30.279-5.408-42.322c-1.319-12.041-2.419-21.843-3.297-29.404c0,0-5.179,11.127-13.048,20.744
	c-0.36,0.527-0.672,0.923-0.929,1.181c-0.786,0.981-1.783,2.039-2.948,3.155c-4.146,4.234-8.814,7.65-13.742,8.889
	c-2.203,0.715-4.332,1.012-6.384,0.877c-1.764-0.111-3.305-0.877-4.662-2.171c-0.042-0.022-0.085-0.033-0.129-0.056l0.013-0.048
	c-0.697-0.687-1.357-1.471-1.946-2.472c-0.882-2.109-1.408-4.703-1.581-7.78c-0.178-3.071-0.178-6.195,0-9.36
	c0.173-3.166,0.437-6.063,0.79-8.701c0.352-2.637,0.616-4.569,0.791-5.803c-3.692,6.858-7.911,13.362-12.656,19.515
	c-4.748,6.156-9.406,10.988-13.978,14.503c-4.57,3.521-8.793,5.407-12.658,5.668c-3.868,0.265-6.855-1.974-8.966-6.723
	c-1.203-4.484-1.21-9.528-0.053-15.112c-2.274,1.086-4.423,1.596-6.404,1.399c-3.605-0.349-6.812-1.932-9.624-4.746
	c-2.814-2.81-5.275-6.414-7.383-10.812c-2.11-4.39-3.871-8.7-5.276-12.919c-1.406-4.221-2.547-7.913-3.426-11.078
	c-0.881-3.162-1.497-5.009-1.846-5.537c-1.056-1.403-2.199-1.489-3.429-0.263c-1.233,1.231-2.504,3.163-3.821,5.8
	c-1.32,2.639-2.552,5.672-3.694,9.099c-1.146,3.429-2.154,6.682-3.033,9.76c-0.881,3.075-1.582,5.665-2.11,7.778
	c-0.525,2.109-0.788,3.075-0.788,2.897c-0.531,2.288-0.971,5.275-1.32,8.967c-0.354,3.693-0.574,7.344-0.659,10.943
	c-0.089,3.605-0.089,6.855,0,9.759c0.085,2.898,0.305,4.7,0.659,5.402c-1.231,0-2.991-0.392-5.275-1.183
	c-2.288-0.792-4.046-1.188-5.271-1.188V319.7v-28.482c0-9.272-0.039-19.165-0.109-29.616c-6.41,0.699-13.729,1.649-21.991,2.852
	c-8.437,1.231-16.439,2.812-23.998,4.747c0.353,5.45,0.527,11.032,0.527,16.744c0,5.717,0.135,11.341,0.396,16.879
	c0.264,5.537,0.793,10.9,1.583,16.083c0.333,2.182,0.798,4.255,1.304,6.296c1.587,5.415,6.09,15.759,16.892,12.953
	c2.195-0.788,4.218-2.018,6.064-3.691c1.846-1.667,3.471-3.294,4.879-4.877c1.229-1.229,2.243-1.229,3.032,0
	c0.792,1.231,0.042,3.077-2.241,5.539c-1.054,1.23-2.374,2.55-3.955,3.953c-1.581,1.407-3.473,2.593-5.669,3.562
	c-2.202,0.962-4.659,1.583-7.385,1.846c-2.727,0.265-5.667-0.047-8.832-0.924c-4.046-1.054-7.033-4.311-8.964-9.756
	c-1.938-5.448-3.39-11.82-4.354-19.117c-0.969-7.293-1.626-14.899-1.979-22.813c-0.355-7.908-0.789-15.03-1.319-21.358
	c-7.734,0.706-13.405,1.319-17.005,1.847c-3.605,0.528-6.199,0.883-7.78,1.056c-1.583,0.176-2.638,0.09-3.164-0.265
	c-0.528-0.35-1.498-1.141-2.902-2.374c0.17-0.877,0.22-1.713,0.131-2.503c-0.09-0.791-0.09-1.453,0-1.979
	c0.089-0.529,0.437-1.056,1.056-1.583c0.614-0.527,1.799-0.964,3.56-1.317c2.64-0.702,6.459-1.097,11.471-1.188
	c5.011-0.087,9.89-0.48,14.634-1.185c-0.175-5.628-0.353-10.022-0.526-13.185c-0.174-3.166-0.354-5.936-0.524-8.308
	c-0.181-2.374-0.311-4.702-0.398-6.989c-0.09-2.282-0.132-5.274-0.132-8.965c0-0.878,0.482-1.536,1.451-1.979
	c0.964-0.438,2.063-0.701,3.294-0.79c1.229-0.087,2.376,0.089,3.431,0.526c1.056,0.442,1.754,1.1,2.106,1.979
	c0.528,1.582,0.88,3.912,1.058,6.986c0.174,3.08,0.303,6.33,0.394,9.757c0.086,3.428,0.132,6.903,0.132,10.416
	c0,3.52-0.091,6.507-0.264,8.969c7.559-0.529,14.987-1.096,22.281-1.717c7.295-0.611,14.9-1.271,22.813-1.978
	c0.311,0.033,0.579,0.117,0.85,0.193c-0.091-11.415-0.254-22.944-0.508-34.605c-0.261-12.218-0.571-24.347-0.921-36.392
	c-0.356-12.037-0.882-23.422-1.581-34.147c0-0.351,1.054-1.01,3.165-1.977c2.107-0.966,4.39-1.189,6.854-0.66
	c0.172,0.526,0.35,2.768,0.528,6.723c0.173,3.956,0.303,9.012,0.396,15.162c0.086,6.156,0.13,13.146,0.13,20.966
	c0,7.823,0.043,15.868,0.132,24.129c0.086,8.265,0.132,16.44,0.132,24.524v22.282v17.139v9.362
	c1.934-8.611,4.701-15.73,8.309-21.358c3.6-5.623,6.896-8.613,9.889-8.966c3.512-0.699,6.195,0.045,8.041,2.241
	c1.846,2.199,3.337,5.189,4.484,8.967c1.141,3.779,2.283,8.003,3.427,12.656c1.141,4.66,2.677,9.099,4.617,13.317
	c1.932,4.219,4.567,7.955,7.907,11.207c2.38,2.323,5.42,3.963,9.055,4.985c1.143-3.939,2.598-7.585,4.391-10.919
	c3.694-6.328,7.558-12.131,11.605-17.404c4.041-5.274,8.346-9.756,12.919-13.448c4.57-3.692,9.362-6.37,14.373-8.044
	c5.01-1.668,10.236-2.062,15.692-1.188c-0.18,1.058-0.574,3.257-1.189,6.595c-0.618,3.34-1.276,7.252-1.976,11.733
	c-0.706,4.484-1.319,9.188-1.846,14.109c-0.531,4.923-0.836,9.584-0.923,13.977c-0.045,2.141-0.002,4.116,0.121,5.943
	c0.084,1.036,0.908,9.586,5.375,11.573c0.729,0.218,1.461,0.335,2.196,0.388c4.408-0.17,11.337-5.68,22.236-23.48
	c1.233-1.756,2.331-3.516,3.298-5.274c0.965-1.757,1.713-3.338,2.24-4.747c0.7-1.756,1.229-3.428,1.582-5.01
	c-0.178-1.934-0.31-3.603-0.396-5.009c-0.092-1.405-0.129-2.858-0.129-4.354c0-1.49-0.049-3.032-0.135-4.614
	c-0.089-1.584-0.129-3.603-0.129-6.064v-10.416v-15.561c0-5.709,0.086-11.731,0.264-18.062c0.173-6.328,0.393-12.347,0.658-18.061
	c0.264-5.71,0.611-10.901,1.053-15.559c0.437-4.656,0.926-8.216,1.453-10.681c1.227-5.099,3.118-9.007,5.668-11.736
	c2.546-2.724,5.227-4.306,8.044-4.746c2.81-0.438,5.578,0.262,8.306,2.107c2.723,1.848,4.787,4.708,6.198,8.572
	c1.582,3.87,2.371,8.88,2.371,15.03c0,6.155-0.525,12.882-1.579,20.173C368.283,214.623,366.831,222.223,364.984,230.135
	 M370.38,229.004c0.703-1.932,1.804-3.865,3.301-5.8c1.488-1.932,3.733-3.514,6.721-4.746c1.758-0.351,2.812,0.704,3.166,3.165
	c0.351,2.463,0,4.309-1.056,5.537c-1.935,1.581-3.162,2.945-3.692,4.087c-0.525,1.147-1.759,1.889-3.69,2.241
	c-1.055-0.171-1.979-0.218-2.769-0.132C371.569,233.445,370.909,231.997,370.38,229.004 M381.985,334.354
	c-1.584-0.615-3.078-1.36-4.484-2.242c-0.354-2.811-0.749-7.473-1.186-13.977c-0.442-6.502-0.881-13.58-1.319-21.228
	c-0.438-7.649-0.88-15.072-1.315-22.284c-0.442-7.204-0.839-12.919-1.19-17.139c0.703-0.351,1.276-0.877,1.716-1.582
	c0.438-0.701,0.923-1.318,1.45-1.849c0.528-0.525,1.229-0.962,2.11-1.315c0.878-0.351,2.018-0.351,3.428,0
	c0.878,8.438,1.49,17.711,1.846,27.819c0.352,10.111,0.965,20.7,1.847,31.776c0.701,5.627,1.402,10.021,2.11,13.183
	c0.699,3.164,1.225,6.158,1.58,8.969C385.763,335.011,383.567,334.966,381.985,334.354"/>
</svg>
