<?xml version="1.0" encoding="utf-8"?>
<!-- Generator: Adobe Illustrator 18.1.0, SVG Export Plug-In . SVG Version: 6.00 Build 0)  -->
<svg version="1.1" id="Capa_1" xmlns="http://www.w3.org/2000/svg" xmlns:xlink="http://www.w3.org/1999/xlink" x="0px" y="0px"
	 width="570.4px" height="570.4px" viewBox="-1152 74.6 570.4 570.4" enable-background="new -1152 74.6 570.4 570.4"
	 xml:space="preserve">
<g>
	<path fill="#FFFFFF" d="M-701.6,630.9c-33,0-58.8-18.4-73.4-51.4l-26.9-61.2h-177.5l-26.9,63.6c-13.5,30.6-40.4,47.7-72.2,47.7
		c-41.6,0-73.4-33-73.4-74.7c0-13.5,4.9-24.5,8.6-33L-977,145c15.9-36.7,46.5-56.3,84.5-56.3h6.1c37.9,0,67.3,19.6,84.5,56.3
		l167.7,378.2c4.9,11,7.3,22,7.3,31.8C-626.9,596.7-660,630.9-701.6,630.9z M-861.9,375.1l-28.2-68.5l-28.2,68.5H-861.9z
		 M-611,149.9h-33v-31.8c0-15.9-13.5-29.4-29.4-29.4s-29.4,13.5-29.4,29.4v33h-33c-15.9,0-29.4,13.5-29.4,29.4
		c0,15.9,13.5,29.4,29.4,29.4h33v33c0,15.9,13.5,29.4,29.4,29.4c15.9,0,29.4-13.5,29.4-29.4v-33h33c15.9,0,29.4-13.5,29.4-29.4
		C-581.6,163.4-595.1,149.9-611,149.9z"/>
</g>
</svg>
