<?xml version="1.0" encoding="utf-8"?>
<!-- Generator: Adobe Illustrator 18.1.0, SVG Export Plug-In . SVG Version: 6.00 Build 0)  -->
<svg version="1.1" id="Capa_1" xmlns="http://www.w3.org/2000/svg" xmlns:xlink="http://www.w3.org/1999/xlink" x="0px" y="0px"
	 width="45.8px" height="45.8px" viewBox="-1414 337.2 45.8 45.8" enable-background="new -1414 337.2 45.8 45.8"
	 xml:space="preserve">
<g>
	<g>
		<path fill="#FFFFFF" d="M-1408.9,351c2.6-3.9,6.6-6.8,11.3-8c0.4-0.1,0.7-0.3,0.8-0.7c0.1-0.3,0.1-0.7-0.1-1.1
			c-1.5-2.4-4.2-4-7.2-4c-4.7,0-8.5,3.8-8.5,8.5c0,2,0.7,3.8,1.8,5.3c0.2,0.3,0.6,0.5,1,0.4S-1409.1,351.3-1408.9,351z"/>
		<path fill="#FFFFFF" d="M-1378.1,337.2c-3,0-5.7,1.6-7.2,4c-0.2,0.3-0.2,0.7-0.1,1.1c0.1,0.3,0.4,0.6,0.8,0.7
			c4.7,1.1,8.8,4,11.4,7.9c0.2,0.3,0.6,0.5,0.9,0.5c0.4,0,0.7-0.2,1-0.5c1.1-1.4,1.8-3.2,1.8-5.2
			C-1369.6,341-1373.4,337.2-1378.1,337.2z"/>
		<path fill="#FFFFFF" d="M-1372.2,363.4c0-3.3-0.9-6.4-2.4-9.1c-2.8-5-7.7-8.6-13.6-9.5c-0.9-0.1-1.9-0.2-2.9-0.2c-1,0-2,0.1-3,0.3
			c-5.8,0.9-10.8,4.5-13.5,9.5c-1.5,2.7-2.3,5.7-2.3,9c0,5.6,2.5,10.6,6.3,14l-1.6,2.2c-0.7,1-0.5,2.3,0.5,3
			c0.4,0.3,0.8,0.4,1.2,0.4c0.7,0,1.3-0.3,1.7-0.9l1.6-2.2c2.7,1.5,5.7,2.3,9,2.3c3.2,0,6.3-0.8,9-2.3l1.6,2.2
			c0.4,0.6,1.1,0.9,1.7,0.9c0.4,0,0.9-0.1,1.2-0.4c1-0.7,1.2-2,0.5-3l-1.6-2.2C-1374.7,374-1372.2,368.9-1372.2,363.4z M-1391,376.9
			c-7.5,0-13.5-6.1-13.5-13.5c0-2.3,0.6-4.5,1.6-6.4c2-3.6,5.6-6.3,9.8-6.9c0.7-0.1,1.4-0.2,2.1-0.2c0.7,0,1.3,0.1,2,0.2
			c4.3,0.6,7.9,3.3,9.9,6.9c1,1.9,1.6,4.1,1.6,6.5C-1377.5,370.8-1383.6,376.9-1391,376.9z"/>
		<path fill="#FFFFFF" d="M-1383.5,366.5l-5.2-3.2c-0.1-0.6-0.4-1.1-0.9-1.5l0.2-6.5c0-0.8-0.6-1.5-1.4-1.6c-0.8,0-1.5,0.6-1.6,1.4
			l-0.2,6.5c-0.6,0.5-1.1,1.2-1.1,2c0,1.4,1.1,2.5,2.5,2.5c0.4,0,0.8-0.1,1.1-0.3l5,3.1c0.2,0.1,0.5,0.2,0.8,0.2
			c0.5,0,1-0.3,1.3-0.7C-1382.5,367.9-1382.8,367-1383.5,366.5z"/>
	</g>
</g>
</svg>
