<?xml version="1.0" encoding="utf-8"?>
<!-- Generator: Adobe Illustrator 18.1.0, SVG Export Plug-In . SVG Version: 6.00 Build 0)  -->
<svg version="1.1" id="Layer_1" xmlns="http://www.w3.org/2000/svg" xmlns:xlink="http://www.w3.org/1999/xlink" x="0px" y="0px"
	 width="190px" height="190px" viewBox="-300 518 190 190" enable-background="new -300 518 190 190" xml:space="preserve">
<g>
	<path fill="#00AA9F" d="M-191.6,619.6c-7.7,0-8.7,8.1-8.7,8.1h16.3C-184,627.7-183.9,619.6-191.6,619.6z"/>
	<path fill="#00AA9F" d="M-225,613.4c0-5.4-3.5-5.4-3.5-5.4h-1.9H-243v11.7h13.5C-227.1,619.6-225,618.9-225,613.4z"/>
	<path fill="#00AA9F" d="M-152.7,561.4c0,0-60.6,0-61.3,0c-35.4,0-64,28.7-64,64c0,35.4,28.7,64,64,64s64-28.7,64-64
		c0-0.7,0-61.3,0-61.3C-150,562.6-151.2,561.4-152.7,561.4z M-202.4,601.8h20.5v4.9h-20.5V601.8z M-212.8,635.5
		c0,15.9-15.8,16.5-15.8,16.5H-243h-0.4h-10.3v-53.3h10.3h0.4h14.4c7.8,0,14,4.6,14,13.9c0,9.3-7.6,9.9-7.6,9.9
		C-212.1,622.5-212.8,635.5-212.8,635.5z M-174.5,634.7h-25.7c0,9.7,8.7,9.1,8.7,9.1c8.2,0,8-5.6,8-5.6h8.7c0,14.9-17,13.9-17,13.9
		c-20.4,0-19.1-20-19.1-20s0-20.1,19.1-20.1C-171.7,612-174.5,634.7-174.5,634.7z"/>
	<path fill="#00AA9F" d="M-228.5,627.7h-14.4v14h12.8c0.2,0,0.5,0,0.9,0c2.1,0,6-0.7,6-6.8C-223.3,627.6-228.5,627.7-228.5,627.7z"
		/>
</g>
</svg>
