<?xml version="1.0" encoding="utf-8"?>
<!-- Generator: Adobe Illustrator 18.1.0, SVG Export Plug-In . SVG Version: 6.00 Build 0)  -->
<svg version="1.1" id="Layer_1" xmlns="http://www.w3.org/2000/svg" xmlns:xlink="http://www.w3.org/1999/xlink" x="0px" y="0px"
	 width="190px" height="190px" viewBox="-300 518 190 190" enable-background="new -300 518 190 190" xml:space="preserve">
<path fill="#00AA9F" d="M-123.1,527.6c0,0-80.9,0-81.9,0c-47.2,0-85.4,38.3-85.4,85.4c0,47.2,38.2,85.4,85.4,85.4
	s85.4-38.2,85.4-85.4c0-1,0-81.9,0-81.9C-119.6,529.2-121.2,527.6-123.1,527.6z M-154.3,584.2l-48.8,28.7l-48.8-28.7
	C-251.9,584.2-154.3,584.2-154.3,584.2z M-148.4,648.4h-109.3v-60.8l54.6,32.1l54.7-32.1L-148.4,648.4L-148.4,648.4z"/>
</svg>
