<?xml version="1.0" encoding="utf-8"?>
<!-- Generator: Adobe Illustrator 18.1.0, SVG Export Plug-In . SVG Version: 6.00 Build 0)  -->
<svg version="1.1" id="Layer_1" xmlns="http://www.w3.org/2000/svg" xmlns:xlink="http://www.w3.org/1999/xlink" x="0px" y="0px"
	 width="190px" height="190px" viewBox="-300 518 190 190" enable-background="new -300 518 190 190" xml:space="preserve">
<path fill="#00AA9F" d="M-132.3,553.3c0,0-67.9,0-68.7,0c-39.6,0-71.7,32.1-71.7,71.7c0,39.6,32.1,71.7,71.7,71.7
	s71.7-32.1,71.7-71.7c0-0.8,0-68.7,0-68.7C-129.3,554.7-130.7,553.3-132.3,553.3z M-224.9,669.8h-20.9v-59.7h20.9V669.8z
	 M-235.3,601.1c-5.8,0-10.5-4.7-10.5-10.5s4.7-10.4,10.5-10.4s10.5,4.7,10.5,10.4C-224.9,596.4-229.6,601.1-235.3,601.1z
	 M-156.2,669.8h-17.9v-29.1c0-6.9-0.8-15.9-10.3-15.9c-9.7,0-11.1,7.6-11.1,15.4v29.6h-17.4v-59.7h16.6v8.1h0.3
	c2.5-4.7,8.5-8.1,17.6-8.1c18.8,0,22.3,10.8,22.3,26.9L-156.2,669.8L-156.2,669.8z"/>
</svg>
