<?xml version="1.0" encoding="utf-8"?>
<!-- Generator: Adobe Illustrator 18.1.0, SVG Export Plug-In . SVG Version: 6.00 Build 0)  -->
<svg version="1.1" id="Capa_1" xmlns="http://www.w3.org/2000/svg" xmlns:xlink="http://www.w3.org/1999/xlink" x="0px" y="0px"
	 width="415.9px" height="415.9px" viewBox="-1229 152.1 415.9 415.9" enable-background="new -1229 152.1 415.9 415.9"
	 xml:space="preserve">
<g>
	<g>
		<path fill="#FFFFFF" d="M-981.2,540.4h-73.6c-7.6,0-13.8,6.2-13.8,13.8c0,7.6,6.2,13.8,13.8,13.8h73.6c7.6,0,13.8-6.2,13.8-13.8
			C-967.4,546.6-973.6,540.4-981.2,540.4z"/>
		<path fill="#FFFFFF" d="M-981.2,505.1h-73.6c-7.6,0-13.8,6.2-13.8,13.8c0,7.6,6.2,13.8,13.8,13.8h73.6c7.6,0,13.8-6.2,13.8-13.8
			C-967.4,511.3-973.6,505.1-981.2,505.1z"/>
		<path fill="#FFFFFF" d="M-1021.1,152.1c-81.8,0-148.3,66.5-148.3,148.3c0,47.9,39.5,104.5,72.7,143.5c16.8,19.8,22.9,29.2,25,33.1
			c-0.1,0.6-0.1,1.3-0.1,1.9c0,7.6,6.2,13.8,13.8,13.8h80c0.1,0,0.1,0,0.2,0c7.6,0,13.8-6.2,13.8-13.8c0-1.9-0.4-3.7-1.1-5.4
			c1.3-3.1,4.4-9,11.2-19.1c5.6-8.2,11.6-16.8,17.7-25.4c31.3-44.3,63.6-90.1,63.6-128.7C-872.7,218.7-939.2,152.1-1021.1,152.1z"/>
	</g>
</g>
</svg>
