<?xml version="1.0" encoding="utf-8"?>
<!-- Generator: Adobe Illustrator 18.1.0, SVG Export Plug-In . SVG Version: 6.00 Build 0)  -->
<svg version="1.1" id="Capa_1" xmlns="http://www.w3.org/2000/svg" xmlns:xlink="http://www.w3.org/1999/xlink" x="0px" y="0px"
	 width="310.4px" height="310.4px" viewBox="-1282 204.6 310.4 310.4" enable-background="new -1282 204.6 310.4 310.4"
	 xml:space="preserve">
<g>
	<path fill="#FFFFFF" d="M-985.8,364.2h-10.9c-0.4,0-0.5,0-0.8,0c-5-32.6-25-60.7-53.5-78.6c-10.9,14.8-29,24.5-49.5,24.5
		c-27.7,0-51-17.7-58.1-41.8l-31.9-24.7c-4.7-2.8-7.2,2.4-7.2,2.4l-4,46.5c-15.9,12.4-28.5,28.2-36.2,46.5h-20.9
		c-8.4,0-15.1,6.7-15.1,15.1v44.4c0,8.4,6.7,15.1,15.1,15.1h17.9c8,24.9,25.2,46,47.7,60.6v26.5c0,6,4.8,10.7,10.7,10.7h26.2
		c6,0,10.7-4.8,10.7-10.7v-7.6c7.9,1.5,15.9,2.2,24.3,2.2c8.2,0,16.1-0.6,23.9-2v7.6c0,6,4.8,10.7,10.7,10.7h26.2
		c6,0,10.7-4.8,10.7-10.7v-26.2c28.9-18.7,48.8-48,52.7-81.9h0.2h10.9c7.9,0,14.3-6.4,14.3-14.3
		C-971.3,370.6-977.9,364.2-985.8,364.2z M-1189.4,349.7c-7.6,0-14.1-3.6-17.8-8.9c2.2,1,4.8,1.5,7.6,1.5c9.2,0,16.8-6.7,16.8-15.1
		c0-6.7-4.8-12.3-11.6-14.3c1.6-0.4,3.2-0.5,5-0.5c11.4,0,20.9,8.4,20.9,18.7C-1168.6,341.5-1177.8,349.7-1189.4,349.7z"/>
	<path fill="#FFFFFF" d="M-1101.8,203.6c-24.7,0-44.6,19.9-44.6,44.6s19.9,44.6,44.6,44.6c24.7,0,44.6-19.9,44.6-44.6
		C-1057.1,223.5-1077.1,203.6-1101.8,203.6z M-1080.4,237.5c-0.5,1.5-1.4,3-2.4,4.2c-1,1.2-2.2,2.2-3.7,2.8s-3,1-4.8,1h-10.7
		c-1.2,0-1.6,0.5-1.8,1.4c0,0.5,0.2,0.8,0.6,1l4.8,1.8c2.8,1.2,5.2,2.8,7,5c1.8,2.2,2.6,4.7,2.6,7.6c0,2.6-0.6,5-2.2,7.2
		c-1.5,2-3.6,3.7-6.2,4.8v4c0,1.8-0.5,3.2-1.5,4c-1,0.8-2.2,1.4-3.7,1.4h-0.4c-1.4,0-2.6-0.5-3.6-1.5c-1-1-1.5-2.2-1.5-3.7l0.2-3.2
		h-1.5c-1.8,0-3.2-0.5-4.2-1.6c-1-1-1.4-2.4-1.4-3.7c0-1.4,0.5-2.5,1.4-3.6c1-1.2,2.4-1.6,4.2-1.6h6.7c0.8,0,1.6-0.2,2.2-0.5
		c0.6-0.4,0.8-0.8,0.8-1.5c0-0.6-0.4-1.4-0.8-1.8c-0.5-0.5-1.5-1-2.8-1.6c-3.8-1.5-6.9-2.8-9.2-3.7c-2.4-0.8-4.2-2-5.6-3.2
		c-1.8-1.6-3.2-3.6-4-5.7c-0.8-2.2-1.4-4.7-1.4-7.6c0-2.5,0.5-4.8,1.5-7.2c1-2.2,2.2-4.2,3.8-6c1.6-1.6,3.6-3.2,5.7-4.4
		s4.6-1.8,6.9-2v-3.2c0-1.8,0.5-3.2,1.6-4.2c1.2-0.8,2.4-1.4,3.8-1.4c1.4,0.2,2.5,0.6,3.6,1.5c1,0.8,1.5,2.2,1.5,3.8v3h3
		c1.6,0,3.2,0.4,4.7,1c1.4,0.6,2.6,1.6,3.7,2.6c1,1.2,1.8,2.5,2.5,4.2c0.6,1.5,0.8,3.4,0.8,5.2
		C-1079.4,234.3-1079.8,235.9-1080.4,237.5z"/>
</g>
</svg>
