<?xml version="1.0" encoding="utf-8"?>
<!-- Generator: Adobe Illustrator 18.1.0, SVG Export Plug-In . SVG Version: 6.00 Build 0)  -->
<svg version="1.1" id="Capa_1" xmlns="http://www.w3.org/2000/svg" xmlns:xlink="http://www.w3.org/1999/xlink" x="0px" y="0px"
	 width="310.4px" height="310.4px" viewBox="-1282 204.6 310.4 310.4" enable-background="new -1282 204.6 310.4 310.4"
	 xml:space="preserve">
<g>
	<g>
		<path fill="#FFFFFF" d="M-1093.2,438.5c0,0,3.5-2.1,6.4,0.9c16,16,64.1,64.1,64.1,64.1c12.8,12.8,30.7,15.8,42,4.5l2-2
			c11.3-11.3,8.3-29.2-4.5-42c0,0-48.2-48.2-64.3-64.3c-2.8-2.8-0.7-6.3-0.7-6.3c29-48.4,22.7-110.4-18.9-152
			c-49.1-49.1-129-49.1-178.1,0s-49.1,129,0,178.1C-1203.5,461.2-1141.5,467.5-1093.2,438.5z M-1221.9,396.3
			c-36.3-36.3-36.3-95.3,0-131.6c36.3-36.3,95.3-36.3,131.6,0c36.3,36.3,36.3,95.3,0,131.6C-1126.6,432.6-1185.6,432.6-1221.9,396.3
			z"/>
		<g>
			<path fill="#FFFFFF" d="M-1162.8,355.7c-5.5,0-10-4.5-10-10l-8-71.5c0-5.5,4.5-10,10-10h28.6c5.5,0,10,4.5,10,10l-8,71.5
				c0,5.5-4.5,10-10,10H-1162.8z"/>
			<path fill="#FFFFFF" d="M-1170.6,376.5c0-4.4,3.6-8,8-8h12.1c4.4,0,8,3.6,8,8v12.1c0,4.4-3.6,8-8,8h-12.1c-4.4,0-8-3.6-8-8V376.5
				z"/>
		</g>
	</g>
</g>
</svg>
