<?xml version="1.0" encoding="utf-8"?>
<!-- Generator: Adobe Illustrator 18.1.0, SVG Export Plug-In . SVG Version: 6.00 Build 0)  -->
<svg version="1.1" id="Layer_1" xmlns="http://www.w3.org/2000/svg" xmlns:xlink="http://www.w3.org/1999/xlink" x="0px" y="0px"
	 width="200px" height="200px" viewBox="-1337 260 200 200" enable-background="new -1337 260 200 200" xml:space="preserve">
<path fill="#B9EFE9" d="M-1162.8,288.2c-19.6-19.3-49.9-26.1-74.1-26.1c-0.1,0-0.1-0.1-0.1-0.1s0,0.1-0.1,0.1
	c-24.2,0-54.6,6.8-74.1,26.1c-20.4,20.1-22.8,46.8-22.8,71.8s2.4,51.8,22.8,71.8c19.6,19.3,49.9,26.1,74.1,26.1
	c0.1,0,0.1,0.1,0.1,0.1s0-0.1,0.1-0.1c24.2,0,54.6-6.8,74.1-26.1c20.4-20.1,22.8-46.8,22.8-71.8S-1142.4,308.2-1162.8,288.2z"/>
</svg>
